<mxfile host="app.diagrams.net" modified="2024-01-04T04:08:04.791Z" agent="Mozilla/5.0 (Windows NT 10.0; Win64; x64; rv:109.0) Gecko/20100101 Firefox/115.0" etag="BAvYuSZiO_wbHsWwodhH" version="22.1.16" type="github">
  <diagram name="Page-1" id="XZL-TBEXtGUKLQuYMLde">
    <mxGraphModel dx="1434" dy="764" grid="1" gridSize="10" guides="1" tooltips="1" connect="1" arrows="1" fold="1" page="1" pageScale="1" pageWidth="1100" pageHeight="1700" math="0" shadow="0">
      <root>
        <mxCell id="0" />
        <mxCell id="1" parent="0" />
        <mxCell id="BkC68lDkN8bGyPSWdYrH-15" style="edgeStyle=orthogonalEdgeStyle;rounded=0;orthogonalLoop=1;jettySize=auto;html=1;exitX=1;exitY=0.5;exitDx=0;exitDy=0;" edge="1" parent="1" source="BkC68lDkN8bGyPSWdYrH-2" target="BkC68lDkN8bGyPSWdYrH-3">
          <mxGeometry relative="1" as="geometry" />
        </mxCell>
        <mxCell id="BkC68lDkN8bGyPSWdYrH-2" value="PWR_PRE_RUN" style="rounded=0;whiteSpace=wrap;html=1;" vertex="1" parent="1">
          <mxGeometry x="490" y="210" width="120" height="60" as="geometry" />
        </mxCell>
        <mxCell id="BkC68lDkN8bGyPSWdYrH-16" style="edgeStyle=orthogonalEdgeStyle;rounded=0;orthogonalLoop=1;jettySize=auto;html=1;exitX=0.5;exitY=1;exitDx=0;exitDy=0;" edge="1" parent="1" source="BkC68lDkN8bGyPSWdYrH-3" target="BkC68lDkN8bGyPSWdYrH-5">
          <mxGeometry relative="1" as="geometry" />
        </mxCell>
        <mxCell id="BkC68lDkN8bGyPSWdYrH-3" value="PWR_RUN" style="rounded=0;whiteSpace=wrap;html=1;" vertex="1" parent="1">
          <mxGeometry x="860" y="210" width="120" height="60" as="geometry" />
        </mxCell>
        <mxCell id="BkC68lDkN8bGyPSWdYrH-13" style="edgeStyle=orthogonalEdgeStyle;rounded=0;orthogonalLoop=1;jettySize=auto;html=1;exitX=1;exitY=0.5;exitDx=0;exitDy=0;" edge="1" parent="1" source="BkC68lDkN8bGyPSWdYrH-4" target="BkC68lDkN8bGyPSWdYrH-2">
          <mxGeometry relative="1" as="geometry" />
        </mxCell>
        <mxCell id="BkC68lDkN8bGyPSWdYrH-4" value="PWR_INIT" style="rounded=0;whiteSpace=wrap;html=1;" vertex="1" parent="1">
          <mxGeometry x="55" y="210" width="120" height="60" as="geometry" />
        </mxCell>
        <mxCell id="BkC68lDkN8bGyPSWdYrH-17" style="edgeStyle=orthogonalEdgeStyle;rounded=0;orthogonalLoop=1;jettySize=auto;html=1;" edge="1" parent="1" target="BkC68lDkN8bGyPSWdYrH-6">
          <mxGeometry relative="1" as="geometry">
            <mxPoint x="860" y="590" as="sourcePoint" />
          </mxGeometry>
        </mxCell>
        <mxCell id="BkC68lDkN8bGyPSWdYrH-5" value="&lt;div&gt;PWR_POST_RUN&lt;/div&gt;" style="rounded=0;whiteSpace=wrap;html=1;" vertex="1" parent="1">
          <mxGeometry x="860" y="560" width="120" height="60" as="geometry" />
        </mxCell>
        <mxCell id="BkC68lDkN8bGyPSWdYrH-6" value="&lt;div&gt;PWR_SLEEP&lt;/div&gt;" style="rounded=0;whiteSpace=wrap;html=1;" vertex="1" parent="1">
          <mxGeometry x="490" y="560" width="120" height="60" as="geometry" />
        </mxCell>
        <mxCell id="BkC68lDkN8bGyPSWdYrH-8" style="edgeStyle=orthogonalEdgeStyle;rounded=0;orthogonalLoop=1;jettySize=auto;html=1;exitX=0.5;exitY=1;exitDx=0;exitDy=0;entryX=0.5;entryY=0;entryDx=0;entryDy=0;" edge="1" parent="1" source="BkC68lDkN8bGyPSWdYrH-7" target="BkC68lDkN8bGyPSWdYrH-4">
          <mxGeometry relative="1" as="geometry" />
        </mxCell>
        <mxCell id="BkC68lDkN8bGyPSWdYrH-7" value="" style="ellipse;whiteSpace=wrap;html=1;aspect=fixed;fillStyle=solid;fillColor=#001933;" vertex="1" parent="1">
          <mxGeometry x="105" y="120" width="20" height="20" as="geometry" />
        </mxCell>
        <mxCell id="BkC68lDkN8bGyPSWdYrH-10" value="&lt;div&gt;Power ON/ Wake Up&lt;/div&gt;" style="text;strokeColor=none;align=center;fillColor=none;html=1;verticalAlign=middle;whiteSpace=wrap;rounded=0;" vertex="1" parent="1">
          <mxGeometry x="80" y="80" width="120" height="30" as="geometry" />
        </mxCell>
        <mxCell id="BkC68lDkN8bGyPSWdYrH-11" value="PwrM_Init" style="text;strokeColor=none;align=center;fillColor=none;html=1;verticalAlign=middle;whiteSpace=wrap;rounded=0;" vertex="1" parent="1">
          <mxGeometry x="100" y="160" width="120" height="30" as="geometry" />
        </mxCell>
        <mxCell id="BkC68lDkN8bGyPSWdYrH-22" value="&lt;div&gt;NvM_State == OK&lt;/div&gt;" style="text;strokeColor=none;align=center;fillColor=none;html=1;verticalAlign=middle;whiteSpace=wrap;rounded=0;" vertex="1" parent="1">
          <mxGeometry x="690" y="190" width="120" height="30" as="geometry" />
        </mxCell>
        <mxCell id="BkC68lDkN8bGyPSWdYrH-24" value="&lt;div&gt;(Voltage_Check != OK) || &lt;br&gt;&lt;/div&gt;&lt;div&gt;(NetCom = = Idle) ||&lt;/div&gt;&lt;div&gt;(ThermalCheck != OK&lt;/div&gt;&lt;div&gt;)&lt;br&gt;&lt;/div&gt;" style="text;strokeColor=none;align=center;fillColor=none;html=1;verticalAlign=middle;whiteSpace=wrap;rounded=0;" vertex="1" parent="1">
          <mxGeometry x="910" y="360" width="160" height="70" as="geometry" />
        </mxCell>
        <mxCell id="BkC68lDkN8bGyPSWdYrH-25" value="&lt;div&gt;(Valid_WakeUpEvts = 0)&amp;nbsp;&lt;/div&gt;&lt;div&gt;&amp;amp;&amp;amp;&lt;/div&gt;&lt;div&gt;(NvM_State == OK)&lt;br&gt;&lt;/div&gt;" style="text;strokeColor=none;align=center;fillColor=none;html=1;verticalAlign=middle;whiteSpace=wrap;rounded=0;" vertex="1" parent="1">
          <mxGeometry x="640" y="550" width="180" height="30" as="geometry" />
        </mxCell>
      </root>
    </mxGraphModel>
  </diagram>
</mxfile>
